<svg width="20" height="20" viewBox="0 0 20 20" fill="none" xmlns="http://www.w3.org/2000/svg">
<path d="M10.1667 9.83352L8.99162 11.0085C8.34162 11.6585 8.34162 12.7169 8.99162 13.3669C9.64162 14.0169 10.7 14.0169 11.35 13.3669L13.2 11.5169C14.5 10.2169 14.5 8.10853 13.2 6.8002C11.9 5.5002 9.79164 5.5002 8.4833 6.8002L6.46665 8.81685C5.34998 9.93351 5.34998 11.7419 6.46665 12.8585" stroke="#130061" stroke-width="1.25" stroke-linecap="round" stroke-linejoin="round"/>
<path d="M7.50008 18.3337H12.5001C16.6667 18.3337 18.3334 16.667 18.3334 12.5003V7.50033C18.3334 3.33366 16.6667 1.66699 12.5001 1.66699H7.50008C3.33341 1.66699 1.66675 3.33366 1.66675 7.50033V12.5003C1.66675 16.667 3.33341 18.3337 7.50008 18.3337Z" stroke="#130061" stroke-width="1.25" stroke-linecap="round" stroke-linejoin="round"/>
</svg>
