<svg xmlns="http://www.w3.org/2000/svg" width="11" height="14" viewBox="0 0 11 14">
  <path id="Path_48168" data-name="Path 48168" d="M11.562,2H5.375A1.379,1.379,0,0,0,4,3.375v11.25A1.379,1.379,0,0,0,5.375,16h8.25A1.379,1.379,0,0,0,15,14.625V5.438ZM5.375,14.625V3.375h5.5v2.75h2.75v8.5ZM12.25,7.5v3.437a2.75,2.75,0,1,1-5.5,0V6.469a1.719,1.719,0,0,1,1.9-1.712,1.785,1.785,0,0,1,1.54,1.808v4.372H8.813V6.469a.344.344,0,1,0-.687,0v4.469a1.375,1.375,0,1,0,2.75,0V7.5Z" transform="translate(-4 -2)"/>
</svg>
