<svg width="20" height="20" viewBox="0 0 20 20" fill="none" xmlns="http://www.w3.org/2000/svg">
<path d="M10.0001 18.3337C14.5834 18.3337 18.3334 14.5837 18.3334 10.0003C18.3334 5.41699 14.5834 1.66699 10.0001 1.66699C5.41675 1.66699 1.66675 5.41699 1.66675 10.0003C1.66675 14.5837 5.41675 18.3337 10.0001 18.3337Z" fill="#130061" stroke="#130061" stroke-width="1.5" stroke-linecap="round" stroke-linejoin="round"/>
<path d="M10.841 5.87311L11.6965 7.58422C11.8132 7.82242 12.1243 8.05089 12.3868 8.09464L13.9375 8.35228C14.9292 8.51756 15.1625 9.237 14.4479 9.94672L13.2424 11.1523C13.0382 11.3564 12.9264 11.7502 12.9896 12.0321L13.3347 13.5245C13.6069 14.7058 12.9799 15.1627 11.9347 14.5453L10.4812 13.6849C10.2187 13.5294 9.78611 13.5294 9.51875 13.6849L8.06527 14.5453C7.025 15.1627 6.39305 14.7009 6.66527 13.5245L7.01041 12.0321C7.07361 11.7502 6.9618 11.3564 6.75764 11.1523L5.55208 9.94672C4.84236 9.237 5.07083 8.51756 6.0625 8.35228L7.61319 8.09464C7.87083 8.05089 8.18194 7.82242 8.29861 7.58422L9.15416 5.87311C9.62083 4.94464 10.3792 4.94464 10.841 5.87311Z" fill="white"/>
</svg>
