<svg width="14" height="14" viewBox="0 0 14 14" fill="none" xmlns="http://www.w3.org/2000/svg">
<path d="M10.5 1.16699V2.33366M3.5 1.16699V2.33366" stroke="#333B70" stroke-width="1.25" stroke-linecap="round" stroke-linejoin="round"/>
<path d="M6.99746 7.58301H7.00271M6.99746 9.91634H7.00271M9.32817 7.58301H9.33342M4.66675 7.58301H4.67198M4.66675 9.91634H4.67198" stroke="#333B70" stroke-width="1.25" stroke-linecap="round" stroke-linejoin="round"/>
<path d="M2.04163 4.66602H11.9583" stroke="#333B70" stroke-width="1.25" stroke-linecap="round" stroke-linejoin="round"/>
<path d="M1.45837 7.14187C1.45837 4.60013 1.45837 3.32925 2.18878 2.53962C2.91918 1.75 4.09474 1.75 6.44587 1.75H7.55421C9.90533 1.75 11.0809 1.75 11.8113 2.53962C12.5417 3.32925 12.5417 4.60013 12.5417 7.14187V7.44147C12.5417 9.98323 12.5417 11.2541 11.8113 12.0437C11.0809 12.8333 9.90533 12.8333 7.55421 12.8333H6.44587C4.09474 12.8333 2.91918 12.8333 2.18878 12.0437C1.45837 11.2541 1.45837 9.98323 1.45837 7.44147V7.14187Z" stroke="#333B70" stroke-width="1.25" stroke-linecap="round" stroke-linejoin="round"/>
<path d="M1.75012 4.66602H12.2501" stroke="#333B70" stroke-width="1.25" stroke-linecap="round" stroke-linejoin="round"/>
</svg>
