<svg width="1439" height="289" viewBox="0 0 1439 289" fill="none" xmlns="http://www.w3.org/2000/svg">
<path d="M916.322 422.416C805.507 422.416 717.871 386.812 633.105 352.392C549.001 318.224 461.99 282.897 352.721 282.897C243.452 282.897 156.442 318.224 72.3375 352.392C27.2686 370.699 -19.3455 389.636 -68.9765 403L-71 399.47C-21.8105 386.206 24.6197 367.37 69.5046 349.114C154.271 314.694 241.907 279.089 352.721 279.089C463.536 279.089 551.172 314.694 635.938 349.114C720.042 383.281 807.053 418.609 916.322 418.609C1025.59 418.609 1112.6 383.281 1196.71 349.114C1281.47 314.694 1369.11 279.089 1479.92 279.089V282.872C1370.62 282.872 1283.64 318.199 1199.54 352.367C1114.77 386.786 1027.14 422.391 916.322 422.391V422.416Z" fill="#343432" fill-opacity="0.1"/>
<path d="M916.322 397.047C805.507 397.047 717.871 361.442 633.105 327.022C549.001 292.855 461.99 257.527 352.721 257.527C243.452 257.527 156.442 292.855 72.3375 327.022C27.2686 345.329 -19.3455 364.266 -68.9765 377.631L-71 374.1C-21.8105 360.837 24.6197 341.975 69.5046 323.744C154.271 289.325 241.907 253.72 352.721 253.72C463.536 253.72 551.172 289.325 635.938 323.744C720.042 357.912 807.053 393.239 916.322 393.239C1025.59 393.239 1112.6 357.912 1196.71 323.744C1281.47 289.299 1369.11 253.72 1479.92 253.72V257.502C1370.62 257.502 1283.64 292.83 1199.54 326.997C1114.77 361.442 1027.14 397.022 916.322 397.022V397.047Z" fill="#343432" fill-opacity="0.1"/>
<path d="M916.322 371.679C805.507 371.679 717.871 336.074 633.105 301.654C549.001 267.487 461.99 232.159 352.721 232.159C243.452 232.159 156.442 267.487 72.3375 301.654C27.2686 319.961 -19.3455 338.898 -68.9765 352.262L-71 348.732C-21.8105 335.469 24.6197 316.632 69.5046 298.376C154.271 263.956 241.907 228.352 352.721 228.352C463.536 228.352 551.172 263.956 635.938 298.376C720.042 332.544 807.053 367.871 916.322 367.871C1025.59 367.871 1112.6 332.544 1196.71 298.376C1281.47 263.931 1369.11 228.352 1479.92 228.352V232.134C1370.62 232.134 1283.64 267.461 1199.54 301.629C1114.77 336.074 1027.14 371.654 916.322 371.654V371.679Z" fill="#343432" fill-opacity="0.1"/>
<path d="M916.322 346.316C805.507 346.316 717.871 310.711 633.105 276.291C549.001 242.124 461.99 206.796 352.721 206.796C243.452 206.796 156.442 242.124 72.3375 276.291C27.2686 294.598 -19.3455 313.535 -68.9765 326.9L-71 323.369C-21.8105 310.106 24.6197 291.27 69.5046 273.013C154.271 238.594 241.907 202.989 352.721 202.989C463.536 202.989 551.172 238.594 635.938 273.013C720.042 307.181 807.053 342.534 916.322 342.534C1025.59 342.534 1112.6 307.206 1196.71 273.013C1281.47 238.568 1369.11 202.989 1479.92 202.989V206.771C1370.62 206.771 1283.64 242.099 1199.54 276.266C1114.77 310.711 1027.14 346.291 916.322 346.291V346.316Z" fill="#343432" fill-opacity="0.1"/>
<path d="M916.322 320.946C805.507 320.946 717.871 285.341 633.105 250.922C549.001 216.754 461.99 181.427 352.721 181.427C243.452 181.427 156.442 216.754 72.3375 250.922C27.2686 269.228 -19.3455 288.166 -68.9765 301.53L-71 298C-21.8105 284.736 24.6197 265.9 69.5046 247.644C154.271 213.224 241.907 177.619 352.721 177.619C463.536 177.619 551.172 213.224 635.938 247.644C720.042 281.811 807.053 317.164 916.322 317.164C1025.59 317.164 1112.6 281.836 1196.71 247.644C1281.47 213.224 1369.11 177.619 1479.92 177.619V181.402C1370.62 181.402 1283.64 216.729 1199.54 250.897C1114.77 285.316 1027.14 320.921 916.322 320.921V320.946Z" fill="#343432" fill-opacity="0.1"/>
<path d="M916.322 295.554C805.507 295.554 717.871 259.949 633.105 225.53C549.001 191.362 461.99 156.035 352.721 156.035C243.452 156.035 156.442 191.362 72.3375 225.53C27.2686 243.836 -19.3455 262.774 -68.9765 276.138L-71 272.608C-21.8105 259.344 24.6197 240.508 69.5046 222.252C154.271 187.832 241.907 152.227 352.721 152.227C463.536 152.227 551.172 187.832 635.938 222.252C720.042 256.419 807.053 291.772 916.322 291.772C1025.59 291.772 1112.6 256.444 1196.71 222.252C1281.47 187.832 1369.11 152.227 1479.92 152.227V156.009C1370.62 156.009 1283.64 191.337 1199.54 225.504C1114.77 259.924 1027.14 295.529 916.322 295.529V295.554Z" fill="#343432" fill-opacity="0.1"/>
<path d="M916.322 270.185C805.507 270.185 717.871 234.58 633.105 200.16C549.001 165.992 461.99 130.665 352.721 130.665C243.452 130.665 156.442 165.992 72.3375 200.16C27.2686 218.467 -19.3455 237.404 -68.9765 250.768L-71 247.238C-21.8105 233.975 24.6197 215.138 69.5046 196.882C154.271 162.462 241.907 126.857 352.721 126.857C463.536 126.857 551.172 162.462 635.938 196.882C720.042 231.049 807.053 266.377 916.322 266.377C1025.59 266.377 1112.6 231.049 1196.71 196.882C1281.47 162.437 1369.11 126.857 1479.92 126.857V130.64C1370.62 130.64 1283.64 165.967 1199.54 200.135C1114.77 234.58 1027.14 270.159 916.322 270.159V270.185Z" fill="#343432" fill-opacity="0.1"/>
<path d="M916.322 244.822C805.507 244.822 717.871 209.217 633.105 174.797C549.001 140.629 461.99 105.302 352.721 105.302C243.452 105.302 156.442 140.629 72.3375 174.797C27.2686 193.104 -19.3455 212.041 -68.9765 225.405L-71 221.875C-21.8105 208.611 24.6197 189.75 69.5046 171.519C154.271 137.099 241.907 101.494 352.721 101.494C463.536 101.494 551.172 137.099 635.938 171.519C720.042 205.686 807.053 241.014 916.322 241.014C1025.59 241.014 1112.6 205.686 1196.71 171.519C1281.47 137.099 1369.11 101.494 1479.92 101.494V105.277C1370.62 105.277 1283.64 140.604 1199.54 174.772C1114.77 209.191 1027.14 244.796 916.322 244.796V244.822Z" fill="#343432" fill-opacity="0.1"/>
<path d="M916.322 219.452C805.507 219.452 717.871 183.847 633.105 149.427C549.001 115.26 461.99 79.9321 352.721 79.9321C243.452 79.9321 156.442 115.26 72.3375 149.427C27.2686 167.734 -19.3455 186.671 -68.9765 200.035L-71 196.505C-21.8105 183.242 24.6197 164.405 69.5046 146.149C154.271 111.729 241.907 76.1245 352.721 76.1245C463.536 76.1245 551.172 111.729 635.938 146.149C720.042 180.317 807.053 215.644 916.322 215.644C1025.59 215.644 1112.6 180.317 1196.71 146.149C1281.47 111.704 1369.11 76.1245 1479.92 76.1245V79.9069C1370.62 79.9069 1283.64 115.234 1199.54 149.402C1114.77 183.847 1027.14 219.426 916.322 219.426V219.452Z" fill="#343432" fill-opacity="0.1"/>
<path d="M916.322 194.084C805.507 194.084 717.871 158.479 633.105 124.059C549.001 89.8917 461.99 54.5642 352.721 54.5642C243.452 54.5642 156.442 89.8917 72.3375 124.059C27.2686 142.366 -19.3455 161.303 -68.9765 174.668L-71 171.137C-21.8105 157.874 24.6197 139.037 69.5046 120.781C154.271 86.3614 241.907 50.7566 352.721 50.7566C463.536 50.7566 551.172 86.3614 635.938 120.781C720.042 154.949 807.053 190.276 916.322 190.276C1025.59 190.276 1112.6 154.949 1196.71 120.781C1281.47 86.3614 1369.11 50.7566 1479.92 50.7566V54.539C1370.62 54.539 1283.64 89.8664 1199.54 124.034C1114.77 158.454 1027.14 194.059 916.322 194.059V194.084Z" fill="#343432" fill-opacity="0.1"/>
<path d="M916.322 168.715C805.507 168.715 717.871 133.11 633.105 98.6906C549.001 64.5231 461.99 29.1704 352.721 29.1704C243.452 29.1704 156.442 64.4979 72.3375 98.6654C27.2686 116.972 -19.3455 135.909 -68.9765 149.274L-71 145.743C-21.8105 132.48 24.6197 113.644 69.5046 95.3873C154.271 60.9676 241.907 25.3628 352.721 25.3628C463.536 25.3628 551.172 60.9676 635.938 95.3873C720.042 129.555 807.053 164.908 916.322 164.908C1025.59 164.908 1112.6 129.58 1196.71 95.3873C1281.47 60.9676 1369.11 25.3628 1479.92 25.3628V29.1452C1370.62 29.1452 1283.64 64.4726 1199.54 98.6654C1114.77 133.085 1027.14 168.69 916.322 168.69V168.715Z" fill="#343432" fill-opacity="0.1"/>
<path d="M916.322 143.327C805.507 143.327 717.871 107.722 633.105 73.3026C549.001 39.1351 461.99 3.8076 352.721 3.8076C243.452 3.8076 156.442 39.1351 72.3375 73.3026C27.2686 91.6093 -19.3455 110.546 -68.9765 123.911L-71 120.381C-21.8105 107.117 24.6197 88.2556 69.5046 70.0245C154.234 35.6048 241.87 0 352.684 0C463.499 0 551.135 35.6048 635.901 70.0245C720.005 104.192 807.016 139.52 916.285 139.52C1025.55 139.52 1112.56 104.192 1196.67 70.0245C1281.44 35.5796 1369.07 0 1479.89 0V3.78238C1370.58 3.78238 1283.61 39.1099 1199.5 73.2774C1114.74 107.722 1027.1 143.302 916.285 143.302L916.322 143.327Z" fill="#343432" fill-opacity="0.1"/>
</svg>
