<svg width="16" height="16" viewBox="0 0 16 16" fill="none" xmlns="http://www.w3.org/2000/svg">
<path d="M9.07847 14.2453C8.7894 14.516 8.40293 14.6673 8.00073 14.6673C7.59853 14.6673 7.21213 14.516 6.923 14.2453C4.27535 11.7513 0.727174 8.96525 2.45751 4.92042C3.39309 2.73342 5.63889 1.33398 8.00073 1.33398C10.3626 1.33398 12.6084 2.73342 13.544 4.92042C15.2721 8.96018 11.7327 11.7599 9.07847 14.2453Z" stroke="#7D82A4" stroke-width="1.25"/>
<path d="M10.3334 7.33333C10.3334 8.622 9.28875 9.66667 8.00008 9.66667C6.71141 9.66667 5.66675 8.622 5.66675 7.33333C5.66675 6.04467 6.71141 5 8.00008 5C9.28875 5 10.3334 6.04467 10.3334 7.33333Z" stroke="#7D82A4" stroke-width="1.25"/>
</svg>
