<svg width="20" height="20" viewBox="0 0 20 20" fill="none" xmlns="http://www.w3.org/2000/svg">
<path d="M12.0708 4.48002V2.63988C12.0708 1.87621 11.4543 1.25977 10.6907 1.25977C9.927 1.25977 9.31055 1.87621 9.31055 2.63988V4.48002V5.4001M12.0708 4.48002C12.0708 3.71636 12.6872 3.09991 13.4509 3.09991C14.2145 3.09991 14.831 3.71636 14.831 4.48002V6.32017V8.62035M12.0708 4.48002V8.16032" stroke="#130061" stroke-width="1.25" stroke-linecap="round" stroke-linejoin="round"/>
<path d="M9.31048 4.47972C9.31048 3.71606 8.69403 3.09961 7.93037 3.09961C7.16671 3.09961 6.55026 3.77126 6.55026 4.53492V11.8035L5.12414 10.3774C4.5445 9.79774 3.60602 9.68733 2.97117 10.2026C2.33632 10.7178 2.22591 11.6931 2.71355 12.3371L5.47377 16.0358C6.09942 16.8731 6.41225 17.2963 6.78948 17.6184C7.36912 18.1152 8.05918 18.4648 8.79524 18.6212C9.28287 18.7317 9.80732 18.7317 10.847 18.7317C12.8436 18.7317 13.8372 18.7317 14.6285 18.428C15.1529 18.2256 15.567 17.8668 15.9258 17.4528C16.3858 16.9099 16.6343 16.2567 16.9379 15.5666L17.2599 14.5913C17.4623 13.9841 17.5635 13.34 17.5727 12.7052C17.5819 10.5706 17.5727 8.44523 17.5727 6.31066C17.5727 5.547 16.9563 4.93055 16.1926 4.93055C15.429 4.93055 14.8125 5.547 14.8125 6.31066" stroke="#130061" stroke-width="1.25" stroke-linecap="round" stroke-linejoin="round"/>
</svg>
