<svg width="18" height="18" viewBox="0 0 18 18" fill="none" xmlns="http://www.w3.org/2000/svg">
<path d="M12.7462 3H5.24622C2.37372 3 1.57122 3.69 1.50372 6.375C2.95122 6.375 4.12122 7.5525 4.12122 9C4.12122 10.4475 2.95122 11.6175 1.50372 11.625C1.57122 14.31 2.37372 15 5.24622 15H12.7462C15.7462 15 16.4962 14.25 16.4962 11.25V6.75C16.4962 3.75 15.7462 3 12.7462 3Z" stroke="#0137D5" stroke-width="1.5" stroke-linecap="round" stroke-linejoin="round"/>
<path d="M9 6.375H13.005C13.485 6.375 13.875 6.76498 13.875 7.24498V8.205" stroke="#0137D5" stroke-width="1.5" stroke-miterlimit="10" stroke-linecap="round" stroke-linejoin="round"/>
<path d="M9.91498 5.45996L9 6.37494L9.91498 7.28992" stroke="#0137D5" stroke-width="1.5" stroke-miterlimit="10" stroke-linecap="round" stroke-linejoin="round"/>
<path d="M13.875 11.835H9.86998C9.38998 11.835 9 11.445 9 10.965V10.005" stroke="#0137D5" stroke-width="1.5" stroke-miterlimit="10" stroke-linecap="round" stroke-linejoin="round"/>
<path d="M12.9609 12.7502L13.8759 11.8352L12.9609 10.9202" stroke="#0137D5" stroke-width="1.5" stroke-miterlimit="10" stroke-linecap="round" stroke-linejoin="round"/>
<path d="M6.74493 3V5.625" stroke="#0137D5" stroke-width="1.5" stroke-linecap="round" stroke-linejoin="round"/>
<path d="M6.74493 12.375V15" stroke="#0137D5" stroke-width="1.5" stroke-linecap="round" stroke-linejoin="round"/>
</svg>
