<svg width="58" height="58" viewBox="0 0 58 58" fill="none" xmlns="http://www.w3.org/2000/svg">
<g filter="url(#filter0_d_937_11376)">
<path d="M39.4417 9.12061H20.1743V17.1106H43.5567V13.234C43.5567 10.9657 41.7107 9.12061 39.4417 9.12061Z" fill="#D4D1E2"/>
<path d="M28.5352 18.3403H6V10.9264C6 8.20972 8.21068 6 10.9283 6H18.1336C18.8497 6 19.5396 6.15092 20.1664 6.43451C21.0418 6.82896 21.7939 7.47913 22.3213 8.3286L28.5352 18.3403Z" fill="#130061"/>
<path d="M48 20.0004V43.8817C48 46.153 46.1511 48.0003 43.8789 48.0003H10.1211C7.84891 48.0003 6 46.153 6 43.8817V15.8809H43.8789C46.1511 15.8809 48 17.7288 48 20.0004Z" fill="#3E2E7E"/>
<path d="M48 20.0004V43.8817C48 46.153 46.1511 48.0003 43.8789 48.0003H27V15.8809H43.8789C46.1511 15.8809 48 17.7288 48 20.0004Z" fill="#28176F"/>
<path d="M38.048 31.9395C38.048 38.032 33.0919 42.9884 27.0001 42.9884C20.9083 42.9884 15.9521 38.032 15.9521 31.9395C15.9521 25.8481 20.9083 20.8916 27.0001 20.8916C33.0919 20.8916 38.048 25.8481 38.048 31.9395Z" fill="#EAE8F1"/>
<path d="M38.0479 31.9395C38.0479 38.032 33.0918 42.9884 27 42.9884V20.8916C33.0918 20.8916 38.0479 25.8481 38.0479 31.9395Z" fill="#D4D1E2"/>
<path d="M30.561 32.0753C30.3306 32.2704 30.0483 32.3656 29.7685 32.3656C29.4183 32.3656 29.0703 32.2173 28.8268 31.9282L28.2304 31.2213V35.8494C28.2304 36.5287 27.6793 37.0799 27 37.0799C26.3207 37.0799 25.7695 36.5287 25.7695 35.8494V31.2213L25.1732 31.9282C24.7342 32.4476 23.9584 32.514 23.439 32.0753C22.9199 31.6373 22.8532 30.8612 23.2913 30.3418L25.7269 27.4543C26.0444 27.0788 26.5078 26.8628 27 26.8628C27.4922 26.8628 27.9555 27.0788 28.2731 27.4543L30.7087 30.3418C31.1467 30.8612 31.0801 31.6373 30.561 32.0753Z" fill="#7E74A9"/>
<path d="M30.561 32.0753C30.3306 32.2704 30.0483 32.3656 29.7686 32.3656C29.4183 32.3656 29.0703 32.2173 28.8268 31.9282L28.2305 31.2213V35.8494C28.2305 36.5287 27.6793 37.0799 27 37.0799V26.8628C27.4922 26.8628 27.9555 27.0788 28.2731 27.4543L30.7087 30.3418C31.1467 30.8612 31.0801 31.6373 30.561 32.0753Z" fill="#53468C"/>
</g>
<defs>
<filter id="filter0_d_937_11376" x="0" y="0" width="58" height="58.0005" filterUnits="userSpaceOnUse" color-interpolation-filters="sRGB">
<feFlood flood-opacity="0" result="BackgroundImageFix"/>
<feColorMatrix in="SourceAlpha" type="matrix" values="0 0 0 0 0 0 0 0 0 0 0 0 0 0 0 0 0 0 127 0" result="hardAlpha"/>
<feOffset dx="2" dy="2"/>
<feGaussianBlur stdDeviation="4"/>
<feComposite in2="hardAlpha" operator="out"/>
<feColorMatrix type="matrix" values="0 0 0 0 0 0 0 0 0 0 0 0 0 0 0 0 0 0 0.25 0"/>
<feBlend mode="normal" in2="BackgroundImageFix" result="effect1_dropShadow_937_11376"/>
<feBlend mode="normal" in="SourceGraphic" in2="effect1_dropShadow_937_11376" result="shape"/>
</filter>
</defs>
</svg>
