<?xml version="1.0" encoding="utf-8"?>
<!-- Generator: Adobe Illustrator 22.0.1, SVG Export Plug-In . SVG Version: 6.00 Build 0)  -->
<svg version="1.1" id="Layer_1" xmlns="http://www.w3.org/2000/svg" xmlns:xlink="http://www.w3.org/1999/xlink" x="0px" y="0px"
	 viewBox="0 0 566.9 174.1" style="enable-background:new 0 0 566.9 174.1;" xml:space="preserve">
<style type="text/css">
	.st0{fill:#FFFFFF;}
	.st1{fill:#FFFFFF;}
	.st2{fill:#64EAA5;}
	.st3{fill:#696D76;}
</style>
<g>
	<g>
		<g>
			<path class="st0" d="M270,83.7c0.8,3.5,3.3,5,7.2,5c4,0,5.7-1.6,5.7-4.1c0-2.8-1.7-4-7.5-5.4c-9.4-2.2-11.7-5.6-11.7-10.2
				c0-6,4.5-10.1,12.6-10.1c9.1,0,12.8,4.9,13.3,9.9h-7.5c-0.4-2.1-1.5-4.4-6-4.4c-3,0-4.8,1.2-4.8,3.7c0,2.4,1.5,3.4,7,4.6
				c10,2.4,12.2,6.1,12.2,10.9c0,6.3-4.8,10.6-13.8,10.6c-8.7,0-13.3-4.3-14.2-10.6H270z"/>
			<path class="st0" d="M299.3,82.4c0,3.2,1.6,6.4,5.2,6.4c3,0,3.8-1.2,4.5-2.8h7.2c-0.9,3.2-3.7,8.4-11.8,8.4
				c-8.5,0-12.2-6.4-12.2-13.1c0-8.1,4.2-13.9,12.4-13.9c8.9,0,11.9,6.4,11.9,12.9c0,0.9,0,1.4-0.1,2.2H299.3z M309.3,78
				c0-3-1.3-5.5-4.7-5.5c-3.4,0-4.8,2.4-5.1,5.5H309.3z"/>
			<path class="st0" d="M340.1,87.1c0,2.5,0.2,6,0.3,6.7h-6.8c-0.2-0.5-0.3-1.9-0.4-2.5c-0.9,1.5-2.7,3.1-7.3,3.1
				c-6.2,0-8.9-4.1-8.9-8.1c0-5.9,4.7-8.6,12.3-8.6c1.3,0,2.8,0,3.7,0v-1.6c0-1.8-0.7-3.6-4-3.6c-3,0-3.7,1.3-4,3.2h-6.8
				c0.4-4.6,3.2-8.3,11.1-8.3c6.9,0,10.7,2.7,10.7,8.9V87.1z M333.1,82c-0.6,0-2,0-2.9,0c-4.3,0-5.9,1.3-5.9,3.8
				c0,1.9,1.1,3.4,3.7,3.4c4.5,0,5.1-3.2,5.1-6.6V82z"/>
			<path class="st0" d="M341.2,67.9h4v-7h7.1v7h5.1v5.4h-5.1V86c0,2,0.6,2.7,2.7,2.7c0.4,0,1.1,0,1.6-0.1v4.9
				c-1.4,0.5-3.4,0.5-4.8,0.5c-5,0-6.7-2.7-6.7-7.2V73.3h-4V67.9z"/>
			<path class="st0" d="M364.3,86c0.5,2.1,2.2,3.2,4.9,3.2c2.6,0,3.6-0.9,3.6-2.5c0-1.7-1.1-2.3-4.8-3.2c-8.4-2.1-9.8-4.7-9.8-8.3
				c0-3.8,2.7-7.8,10.5-7.8c7.8,0,10.5,4.3,10.7,7.8h-6.8c-0.2-1-0.9-2.8-4.2-2.8c-2.4,0-3.1,1-3.1,2.2c0,1.3,0.8,1.9,5,2.9
				c8.6,2,9.8,5,9.8,8.7c0,4.3-3.3,8.2-11.1,8.2c-7.8,0-11.1-3.8-11.6-8.4H364.3z"/>
			<path class="st0" d="M382.4,59.1h13.6c7.5,0,10.9,3.9,10.9,8.7c0,4-2.3,6.6-4.9,7.5c2.4,0.8,6,3.2,6,8.2
				c0,6.4-4.9,10.2-11.6,10.2h-14V59.1z M395.2,73.4c4.7,0,6.6-1.9,6.6-5.1c0-3-2.1-5-6-5h-8.3v10.1H395.2z M387.5,89.6h8.2
				c4.3,0,7.1-2,7.1-6.1c0-3.6-2.3-6-7.8-6h-7.5V89.6z"/>
			<path class="st0" d="M412.6,75.2c0-3.4,0-5.4,0-6.9h4.8c0.1,0.7,0.1,2.8,0.1,5c1.3-3.3,4.3-5.5,8.5-5.6v4.8
				c-5.2,0.1-8.5,2.6-8.5,9.1v12.1h-4.9V75.2z"/>
			<path class="st0" d="M450.6,81c0,7.4-4.3,13.3-12.1,13.3c-7.4,0-11.8-5.6-11.8-13.3c0-7.6,4.4-13.3,12.1-13.3
				C445.9,67.8,450.6,73,450.6,81z M431.7,81c0,5.4,2.6,9.3,7,9.3c4.4,0,6.9-3.7,6.9-9.3c0-5.6-2.5-9.3-7-9.3
				C434.1,71.8,431.7,75.3,431.7,81z"/>
			<path class="st0" d="M459.7,80.2c2.1-2.5,7.2-8,10.7-11.8h5.8l-9.4,9.8l10.5,15.6h-5.7l-8.1-12.4l-3.7,3.6v8.8h-4.9V57.2h4.9
				V80.2z"/>
			<path class="st0" d="M481,82c0,4.8,2.4,8.3,6.6,8.3c3.8,0,5-1.9,5.8-3.7h4.9c-1,3.2-3.7,7.7-10.9,7.7c-8.1,0-11.4-6.4-11.4-13
				c0-7.6,3.9-13.6,11.7-13.6c8.3,0,11,6.5,11,12.1c0,0.8,0,1.4-0.1,2.1H481z M493.8,78.7c0-3.9-2-7.1-6.1-7.1c-4.3,0-6.1,3-6.5,7.1
				H493.8z"/>
			<path class="st0" d="M502.9,75.2c0-3.4,0-5.4,0-6.9h4.8c0.1,0.7,0.1,2.8,0.1,5c1.3-3.3,4.3-5.5,8.5-5.6v4.8
				c-5.2,0.1-8.5,2.6-8.5,9.1v12.1h-4.9V75.2z"/>
			<path class="st0" d="M522,86.4c0.7,2.6,2.7,4.2,5.9,4.2c3.5,0,4.9-1.5,4.9-3.6c0-2.2-1.2-3.2-5.8-4.4c-7.5-1.8-8.9-4.1-8.9-7.6
				c0-3.6,2.6-7.2,9.4-7.2c6.8,0,9.4,3.9,9.7,7.4h-4.7c-0.3-1.5-1.5-3.7-5.2-3.7c-3.3,0-4.3,1.6-4.3,3.1c0,1.8,1,2.6,5.5,3.7
				c7.8,1.9,9.3,4.5,9.3,8.3c0,4.4-3.5,7.8-10.1,7.8c-6.8,0-10-3.4-10.6-7.9H522z"/>
		</g>
	</g>
	<g>
		<g>
			<path class="st0" d="M222,113.3h6.8c3.6,0,5.3,1.9,5.3,4.3c0,2.9-2,4.4-5.2,4.4h-4.8v5.8H222V113.3z M224.1,120.3h4.5
				c2,0,3.4-0.6,3.4-2.7c0-1.6-1.1-2.6-3.4-2.6h-4.5V120.3z"/>
			<path class="st0" d="M246.3,122.7c0,2.9-1.9,5.5-5.6,5.5c-3.5,0-5.5-2.6-5.5-5.4c0-3,2.1-5.5,5.6-5.5
				C244.4,117.2,246.3,119.9,246.3,122.7z M237.3,122.7c0,2,1.3,3.9,3.5,3.9c2.4,0,3.5-1.8,3.5-3.8c0-2.1-1.3-3.9-3.5-3.9
				C238.4,118.8,237.3,120.6,237.3,122.7z"/>
			<path class="st0" d="M250,117.5c1.9,6,2.3,7.5,2.5,8.6h0c0.3-1.1,0.7-2.4,2.8-8.6h1.9c2.1,6.1,2.6,7.7,2.8,8.5h0
				c0.2-1,0.9-3.2,2.6-8.5h1.9l-3.6,10.3h-2c-1.2-3.6-2.4-6.9-2.8-8.1h0c-0.3,1-1.3,4.1-2.8,8.1h-2.1l-3.4-10.3H250z"/>
			<path class="st0" d="M267.9,123.1c0.1,2,1.4,3.4,3.5,3.4c1.6,0,2.5-0.7,3.1-1.7h1.9c-0.6,1.5-2,3.2-5.1,3.2
				c-3.7,0-5.4-2.7-5.4-5.4c0-3.1,2.1-5.5,5.3-5.5c3.9,0,5.3,2.9,5.3,5.4c0,0.2,0,0.3,0,0.5H267.9z M274.6,121.7
				c-0.1-1.2-0.7-3-3.3-3c-2.1,0-3.2,1.3-3.3,3H274.6z"/>
			<path class="st0" d="M279.4,120.3c0-0.9,0-1.9,0-2.8h1.9c0,0.3,0.1,1.4,0.1,2.3c0.7-1.6,2.2-2.6,4.2-2.6v1.9
				c-2.4,0-4.2,1.4-4.2,4.4v4.3h-1.9V120.3z"/>
			<path class="st0" d="M288.3,112.5h1.9v2.3h-1.9V112.5z M288.3,117.5h1.9v10.3h-1.9V117.5z"/>
			<path class="st0" d="M295.2,120.1c0-0.9,0-1.8,0-2.6h1.9c0,0.4,0.1,1.2,0.1,1.9c0.4-1,1.5-2.2,3.7-2.2c2.4,0,4,1.5,4,4.3v6.3h-2
				v-5.9c0-1.7-0.7-3-2.6-3c-2.2,0-3.2,1.6-3.2,4v5h-1.9V120.1z"/>
			<path class="st0" d="M318.8,126.5c0,3.9-1.3,6.2-5.6,6.2c-4.1,0-4.9-2.3-5.1-3.5h2c0.3,1.1,1.1,2,3.2,2c3,0,3.5-1.9,3.5-4.5V126
				c-0.6,1.2-1.7,2-3.9,2c-2.9,0-4.9-2.3-4.9-5.2c0-3.3,2.4-5.6,5.2-5.6c2.4,0,3.3,1.1,3.6,1.9c0-0.5,0-1.3,0.1-1.6h1.9c0,1,0,2,0,3
				V126.5z M310,122.7c0,2.1,1.4,3.7,3.4,3.7c2.2,0,3.5-1.3,3.5-3.8c0-2.4-1.2-3.8-3.3-3.8C311.2,118.8,310,120.8,310,122.7z"/>
			<path class="st0" d="M344.1,127.8h-1.6c-0.1-0.4-0.2-1.5-0.2-2.1c-1,1.6-2.4,2.5-5.3,2.5c-4.6,0-7.4-3-7.4-7.5
				c0-4.3,2.9-7.6,7.7-7.6c4.3,0,6.2,2.2,6.7,4.4h-2.1c-0.6-1.4-1.8-2.7-4.6-2.7c-3.6,0-5.6,2.6-5.6,5.8c0,3.4,1.9,5.9,5.5,5.9
				c3,0,4.7-1.5,4.7-4.4v-0.4h-4.7v-1.7h6.7V127.8z"/>
			<path class="st0" d="M347.3,127.8v-15.4h1.9v15.4H347.3z"/>
			<path class="st0" d="M364.4,122.7c0,2.9-1.9,5.5-5.6,5.5c-3.5,0-5.5-2.6-5.5-5.4c0-3,2.1-5.5,5.6-5.5
				C362.5,117.2,364.4,119.9,364.4,122.7z M355.3,122.7c0,2,1.3,3.9,3.5,3.9c2.4,0,3.5-1.8,3.5-3.8c0-2.1-1.3-3.9-3.5-3.9
				C356.5,118.8,355.3,120.6,355.3,122.7z"/>
			<path class="st0" d="M367.4,112.5h1.9v6.6c0.5-0.8,1.6-1.9,3.8-1.9c2.9,0,5,2.3,5,5.3c0,3.5-2.2,5.6-5.1,5.6
				c-2.2,0-3.2-1-3.8-1.9c0,0.5,0,1.2-0.1,1.6h-1.9c0-1.3,0-2.4,0-3.6V112.5z M376.1,122.5c0-1.8-1-3.7-3.4-3.7
				c-2.4,0-3.5,1.7-3.5,3.8c0,2.4,1.4,3.8,3.5,3.8C375.1,126.5,376.1,124.6,376.1,122.5z"/>
			<path class="st0" d="M390.1,125.3c0,1,0.1,2.3,0.1,2.6h-1.8c-0.1-0.4-0.1-1.2-0.1-1.5c-0.5,1.1-1.7,1.8-3.9,1.8
				c-2.9,0-4-1.8-4-3.3c0-2.6,2.4-3.4,5.4-3.4c1.2,0,2.2,0,2.5,0v-0.5c0-1.1-0.5-2.2-2.7-2.2c-2,0-2.4,0.9-2.7,1.8h-1.9
				c0.1-1.4,1-3.3,4.6-3.3c3.8,0,4.6,1.8,4.6,3.5V125.3z M388.2,122.8c-0.3,0-1,0-2.5,0c-2.4,0-3.5,0.5-3.5,1.9c0,1,0.8,1.9,2.5,1.9
				c2.7,0,3.5-1.6,3.5-3.3V122.8z"/>
			<path class="st0" d="M393.9,127.8v-15.4h1.9v15.4H393.9z"/>
			<path class="st0" d="M412.6,115.1H407v-1.7h13.1v1.7h-5.5v12.8h-2.1V115.1z"/>
			<path class="st0" d="M421.9,112.5h1.9v2.3h-1.9V112.5z M421.9,117.5h1.9v10.3h-1.9V117.5z"/>
			<path class="st0" d="M438.5,124.6c-0.5,1.9-2.1,3.5-5.1,3.5c-3.7,0-5.4-2.5-5.4-5.4c0-2.9,2-5.5,5.5-5.5c3.5,0,4.8,2.2,5,3.6
				h-1.9c-0.4-1-1.2-2-3.1-2c-2.2,0-3.5,1.6-3.5,3.9c0,2.2,1.2,3.9,3.5,3.9c1.7,0,2.6-0.8,3.1-1.9H438.5z"/>
			<path class="st0" d="M443.1,122.4c1.1-1,4.1-3.5,5.7-4.9h2.5l-4.8,4l5.3,6.3h-2.5l-4.3-5.2l-1.9,1.5v3.7h-1.9v-15.4h1.9V122.4z"
				/>
			<path class="st0" d="M454.2,123.1c0.1,2,1.4,3.4,3.5,3.4c1.6,0,2.5-0.7,3.1-1.7h1.9c-0.6,1.5-2,3.2-5.1,3.2
				c-3.7,0-5.4-2.7-5.4-5.4c0-3.1,2.1-5.5,5.3-5.5c3.9,0,5.3,2.9,5.3,5.4c0,0.2,0,0.3,0,0.5H454.2z M460.9,121.7
				c-0.1-1.2-0.7-3-3.3-3c-2.1,0-3.2,1.3-3.3,3H460.9z"/>
			<path class="st0" d="M464.5,117.5h2.1v-3.3h1.9v3.3h2.7v1.5h-2.7v5.7c0,1.2,0.3,1.7,1.4,1.7c0.3,0,0.7,0,1-0.1v1.4
				c-0.5,0.2-1,0.2-1.6,0.2c-2.1,0-2.8-1-2.8-3V119h-2.1V117.5z"/>
			<path class="st0" d="M483.3,123.6c0.5,1.7,1.8,2.9,4.6,2.9c2.9,0,3.9-1.1,3.9-2.5c0-1.4-0.8-2.3-4.5-2.9
				c-4.4-0.7-5.4-2.1-5.4-4.1c0-2.6,2.4-4,5.6-4c4.7,0,5.8,2.5,6,3.9h-2.1c-0.3-1-0.9-2.3-4-2.3c-2.1,0-3.4,0.7-3.4,2.2
				c0,1.2,0.6,1.9,3.9,2.5c5.2,0.9,6.1,2.5,6.1,4.5c0,2.3-1.8,4.3-6.2,4.3c-4.1,0-6.1-1.8-6.6-4.5H483.3z"/>
			<path class="st0" d="M505.6,125.3c0,1,0.1,2.3,0.1,2.6h-1.8c-0.1-0.4-0.1-1.2-0.1-1.5c-0.5,1.1-1.7,1.8-3.9,1.8
				c-2.9,0-4-1.8-4-3.3c0-2.6,2.4-3.4,5.4-3.4c1.2,0,2.2,0,2.5,0v-0.5c0-1.1-0.5-2.2-2.7-2.2c-2,0-2.4,0.9-2.7,1.8h-1.9
				c0.1-1.4,1-3.3,4.6-3.3c3.8,0,4.6,1.8,4.6,3.5V125.3z M503.7,122.8c-0.3,0-1,0-2.5,0c-2.4,0-3.5,0.5-3.5,1.9c0,1,0.8,1.9,2.5,1.9
				c2.7,0,3.5-1.6,3.5-3.3V122.8z"/>
			<path class="st0" d="M509.3,127.8v-15.4h1.9v15.4H509.3z"/>
			<path class="st0" d="M517.4,123.1c0.1,2,1.4,3.4,3.5,3.4c1.6,0,2.5-0.7,3.1-1.7h1.9c-0.6,1.5-2,3.2-5.1,3.2
				c-3.7,0-5.4-2.7-5.4-5.4c0-3.1,2.1-5.5,5.3-5.5c3.9,0,5.3,2.9,5.3,5.4c0,0.2,0,0.3,0,0.5H517.4z M524,121.7c-0.1-1.2-0.7-3-3.3-3
				c-2.1,0-3.2,1.3-3.3,3H524z"/>
			<path class="st0" d="M530.1,124.7c0.4,1.2,1.4,1.9,3.3,1.9c2,0,2.7-0.7,2.7-1.6c0-0.9-0.5-1.5-3.1-1.8c-3.6-0.5-4.3-1.7-4.3-3
				c0-1.3,1.1-3,4.4-3c3.6,0,4.6,1.8,4.7,3.1h-2c-0.2-0.6-0.6-1.6-2.9-1.6c-1.9,0-2.3,0.8-2.3,1.4c0,0.8,0.5,1.2,2.9,1.5
				c3.9,0.5,4.6,1.7,4.6,3.3c0,1.9-1.4,3.2-4.8,3.2c-3,0-4.8-1.3-5.1-3.4H530.1z"/>
		</g>
	</g>
	<g>
		<g>
			<polygon class="st2" points="170.5,147.1 85.8,147.1 174,61 258.6,61 			"/>
			<polygon class="st3" points="112.6,113.1 27.9,113.1 116.1,27 200.7,27 			"/>
		</g>
	</g>
</g>
</svg>
